<svg width="56" height="55" viewBox="0 0 56 55" fill="none" xmlns="http://www.w3.org/2000/svg">
<ellipse cx="27.9" cy="27.5" rx="27.9" ry="27.5" fill="url(#paint0_linear_438_290)"/>
<path d="M12.8545 17.5894C12.9074 17.4307 13.0132 17.391 13.1719 17.4704C13.3306 17.5233 13.4761 17.5629 13.6083 17.5894C13.7935 17.6423 13.9919 17.6687 14.2035 17.6687C14.3886 17.6423 14.5738 17.6423 14.7589 17.6687C15.1028 17.6952 15.4599 17.7216 15.8302 17.7481C16.2005 17.7481 16.5576 17.7878 16.9014 17.8671C17.0601 17.8936 17.2188 17.9332 17.3775 17.9861C17.5098 18.039 17.6553 18.0919 17.814 18.1448C17.9462 18.1713 18.0917 18.1845 18.2504 18.1845C18.4091 18.1845 18.5546 18.211 18.6868 18.2639C18.9513 18.3168 19.2159 18.3565 19.4804 18.3829C19.7449 18.4094 20.0226 18.449 20.3135 18.5019C20.4458 18.5284 20.5913 18.5548 20.75 18.5813C20.9087 18.5813 21.0674 18.5945 21.2261 18.621C21.3583 18.6474 21.4906 18.6739 21.6228 18.7003C21.7551 18.7268 21.8874 18.7664 22.0196 18.8193C22.2841 18.8722 22.5486 18.9251 22.8131 18.978C23.0776 19.0309 23.3554 19.0838 23.6463 19.1367C23.9373 19.2425 24.1224 19.3087 24.2018 19.3351C24.2547 19.3351 24.2944 19.3616 24.3208 19.4145C24.3208 19.5467 24.2679 19.5996 24.1621 19.5732C24.0298 19.5467 23.8976 19.5467 23.7653 19.5732C23.6595 19.5996 23.567 19.6261 23.4876 19.6525C23.4083 19.6525 23.3157 19.6525 23.2099 19.6525C23.1041 19.679 23.0115 19.6922 22.9322 19.6922C22.8263 19.6922 22.7205 19.7054 22.6147 19.7319C22.5354 19.7319 22.456 19.7319 22.3767 19.7319C22.2709 19.7319 22.1783 19.7451 22.099 19.7716C21.9932 19.798 21.9006 19.8377 21.8212 19.8906C21.7154 19.9435 21.5964 19.9964 21.4641 20.0493C21.3319 20.1022 21.1996 20.1551 21.0674 20.208C20.9087 20.2609 20.7632 20.3138 20.631 20.3667C20.5516 20.4196 20.4723 20.4857 20.3929 20.5651C20.3135 20.618 20.221 20.6709 20.1152 20.7238C19.8507 20.8031 19.7052 20.856 19.6787 20.8825C19.6523 20.9089 19.6126 20.9354 19.5597 20.9618C19.4275 21.0147 19.3084 21.0412 19.2026 21.0412C19.0968 21.0412 18.991 21.0676 18.8852 21.1205C18.7794 21.1999 18.7001 21.2396 18.6472 21.2396C18.5678 21.2396 18.5017 21.266 18.4488 21.3189C18.1314 21.6363 17.9198 21.8744 17.814 22.0331C17.6024 22.2711 17.4833 22.4298 17.4569 22.5092C17.4304 22.5621 17.3908 22.6414 17.3379 22.7472C17.285 22.853 17.2321 22.9985 17.1792 23.1837C17.0998 23.3688 17.0337 23.5275 16.9808 23.6598C16.875 23.7656 16.8353 23.8582 16.8618 23.9375C16.8618 24.0169 16.8485 24.083 16.8221 24.1359C16.7692 24.2681 16.7163 24.4004 16.6634 24.5327C16.584 24.6649 16.5311 24.7972 16.5047 24.9294C16.4518 25.0617 16.4253 25.1807 16.4253 25.2865C16.4253 25.3923 16.4121 25.4981 16.3856 25.6039C16.3327 25.7626 16.2931 25.9213 16.2666 26.08C16.2137 26.2387 16.1608 26.3842 16.1079 26.5164C16.055 26.5958 16.0153 26.6884 15.9889 26.7942C15.936 26.8735 15.8963 26.9397 15.8699 26.9926C15.8963 27.0984 15.8963 27.1909 15.8699 27.2703C15.8434 27.3232 15.8302 27.3761 15.8302 27.429C15.8037 27.5612 15.7773 27.7199 15.7508 27.9051C15.7244 28.0638 15.6979 28.2093 15.6715 28.3415C15.6715 28.6854 15.6583 28.9499 15.6318 29.135C15.5789 29.3202 15.5789 29.5186 15.6318 29.7302C15.6583 29.9418 15.7244 30.1402 15.8302 30.3253C15.936 30.5105 16.055 30.6824 16.1873 30.8411C16.3724 30.9998 16.5179 31.1585 16.6237 31.3172C16.7031 31.4759 16.7956 31.6082 16.9014 31.714C17.1659 31.8991 17.3643 32.0314 17.4966 32.1107C17.6288 32.1636 17.7743 32.2165 17.933 32.2694C18.1446 32.4017 18.2769 32.4678 18.3298 32.4678C18.3827 32.4414 18.4356 32.4414 18.4885 32.4678C18.5943 32.5207 18.6868 32.5736 18.7662 32.6265C18.8455 32.653 18.9117 32.6794 18.9646 32.7059C19.3613 32.7852 19.6126 32.8249 19.7184 32.8249C19.8242 32.7984 19.9432 32.7588 20.0755 32.7059C20.2077 32.6794 20.3268 32.6794 20.4326 32.7059C20.5384 32.7059 20.6574 32.7059 20.7897 32.7059C21.0013 32.6794 21.1203 32.6794 21.1467 32.7059C21.1732 32.7323 21.2129 32.7455 21.2658 32.7455C21.5832 32.8513 21.9403 32.891 22.337 32.8646C22.7602 32.7588 23.0512 32.7059 23.2099 32.7059C23.3421 32.7059 23.4612 32.6794 23.567 32.6265C23.6463 32.6001 23.7124 32.5736 23.7653 32.5472C23.8182 32.5207 23.8844 32.481 23.9637 32.4281C24.0431 32.3752 24.1224 32.3488 24.2018 32.3488C24.2811 32.3488 24.3473 32.3223 24.4002 32.2694C24.5324 32.2165 24.7043 32.1107 24.9159 31.952C25.0746 31.7933 25.1937 31.7007 25.273 31.6743C25.3524 31.6214 25.4582 31.5685 25.5904 31.5156C25.6962 31.4362 25.802 31.3569 25.9078 31.2775C25.9607 31.2246 26.0269 31.1717 26.1062 31.1188C26.1591 31.0395 26.2517 30.9866 26.3839 30.9601C26.4368 30.7485 26.5162 30.5634 26.622 30.4047C26.7278 30.246 26.8468 30.074 26.9791 29.8889C27.1907 29.6508 27.2965 29.4921 27.2965 29.4128C27.2965 29.307 27.3229 29.2276 27.3758 29.1747C27.4816 29.0425 27.5478 28.9234 27.5742 28.8176C27.5742 28.7118 27.5874 28.606 27.6139 28.5002C27.7197 28.3415 27.7594 28.2357 27.7329 28.1828C27.7065 28.1299 27.7197 28.077 27.7726 28.0241C27.799 27.9712 27.8123 27.8919 27.8123 27.7861C27.7858 27.6803 27.7858 27.5612 27.8123 27.429C27.8387 27.3232 27.8652 27.2042 27.8916 27.0719C27.9181 26.9132 27.9578 26.7545 28.0107 26.5958C28.0371 26.3048 28.09 26.0139 28.1694 25.7229C28.2487 25.5378 28.2884 25.432 28.2884 25.4055C28.2619 25.3791 28.2619 25.3394 28.2884 25.2865C28.3148 25.2071 28.3413 25.1278 28.3677 25.0484C28.3677 24.9426 28.3942 24.8633 28.4471 24.8104C28.5529 24.4401 28.6058 24.1491 28.6058 23.9375C28.6322 23.8582 28.6587 23.7788 28.6851 23.6995C28.6851 23.5937 28.6984 23.5143 28.7248 23.4614C28.8042 23.3292 28.8438 23.2366 28.8438 23.1837C28.8438 23.1043 28.8571 23.0514 28.8835 23.025C28.91 22.8927 28.9364 22.7737 28.9629 22.6679C28.9629 22.5356 28.9893 22.4166 29.0422 22.3108C29.1745 22.1786 29.2406 22.0992 29.2406 22.0728C29.2142 22.0199 29.2142 21.967 29.2406 21.914C29.3729 21.7818 29.439 21.676 29.439 21.5966C29.439 21.5173 29.4522 21.4512 29.4787 21.3983C29.6109 21.1338 29.7299 20.8825 29.8357 20.6444C29.9151 20.4064 30.0341 20.1815 30.1928 19.9699C30.4573 19.6261 30.7086 19.3748 30.9467 19.2161C31.1583 19.0309 31.3699 18.8722 31.5815 18.74C31.8989 18.5548 32.084 18.449 32.1369 18.4226C32.4014 18.3168 32.5469 18.2507 32.5734 18.2242C32.5998 18.1713 32.6395 18.1448 32.6924 18.1448C32.7982 18.0919 32.9305 18.0655 33.0892 18.0655C33.2214 18.039 33.3537 18.0126 33.4859 17.9861C33.6975 17.9597 33.9091 17.9465 34.1207 17.9465C34.3323 17.92 34.5836 17.9068 34.8746 17.9068C35.0862 17.9332 35.2052 17.9465 35.2316 17.9465C35.2581 17.92 35.2978 17.9068 35.3507 17.9068C35.4829 17.9332 35.6416 17.9729 35.8268 18.0258C35.9855 18.0523 36.1442 18.0919 36.3029 18.1448C36.6203 18.2242 36.8187 18.2903 36.898 18.3432C36.9774 18.3697 37.0832 18.4094 37.2154 18.4623C37.5064 18.5945 37.7974 18.7135 38.0883 18.8193C38.3793 18.9251 38.6305 19.0442 38.8421 19.1764C39.0273 19.3087 39.1463 19.4012 39.1992 19.4541C39.2257 19.4806 39.2654 19.5203 39.3183 19.5732C39.5828 19.7319 39.7415 19.8112 39.7944 19.8112C39.8473 19.7848 39.9002 19.7848 39.9531 19.8112C40.2176 20.0228 40.3895 20.1419 40.4689 20.1683C40.5482 20.1948 40.6143 20.2344 40.6672 20.2873C40.9317 20.5254 41.0772 20.6576 41.1037 20.6841C41.1037 20.7106 41.1169 20.737 41.1433 20.7635C41.1962 20.8164 41.2888 20.8693 41.4211 20.9222C41.5269 20.9751 41.6195 21.0412 41.6988 21.1205C41.884 21.3321 41.9898 21.4644 42.0162 21.5173C42.0162 21.5437 42.0294 21.5702 42.0559 21.5966C42.2146 21.7289 42.3072 21.8215 42.3336 21.8744C42.3601 21.9273 42.3997 21.9802 42.4526 22.0331L42.7304 22.3902C42.9155 22.7605 43.0742 23.025 43.2065 23.1837C43.3916 23.554 43.5239 23.8185 43.6032 23.9772C43.6561 24.1359 43.709 24.2946 43.7619 24.4533C43.8148 24.5856 43.881 24.7178 43.9603 24.8501C44.0132 24.9559 44.0661 25.0881 44.119 25.2468C44.2248 25.4055 44.3042 25.5774 44.3571 25.7626C44.4364 25.9478 44.5158 26.1461 44.5951 26.3577C44.648 26.49 44.7009 26.6884 44.7538 26.9529C44.8332 27.1909 44.8861 27.4158 44.9125 27.6274C44.9654 27.9448 45.0183 28.2886 45.0712 28.6589C45.1241 29.0028 45.1241 29.3466 45.0712 29.6905C45.0977 29.7699 45.1109 29.8757 45.1109 30.0079C45.1109 30.1137 45.0977 30.246 45.0712 30.4047C45.0448 30.5369 45.0183 30.6824 44.9919 30.8411C44.9654 30.9734 44.939 31.0659 44.9125 31.1188C44.8067 31.304 44.7406 31.4495 44.7142 31.5553C44.7142 31.6611 44.6877 31.7801 44.6348 31.9124C44.5819 32.0182 44.529 32.124 44.4761 32.2298C44.4497 32.3356 44.41 32.4546 44.3571 32.5868C44.2248 32.7984 44.1455 32.9439 44.119 33.0233C44.119 33.0762 44.1058 33.1291 44.0794 33.182C43.8677 33.3671 43.7619 33.4994 43.7619 33.5787C43.7619 33.6316 43.7355 33.6845 43.6826 33.7374C43.6297 33.7903 43.5636 33.8565 43.4842 33.9358C43.4049 33.9887 43.3387 34.0548 43.2858 34.1342C43.2329 34.2135 43.2065 34.2929 43.2065 34.3723C43.18 34.4252 43.1271 34.4781 43.0478 34.531C43.0213 34.6368 42.9023 34.769 42.6907 34.9277C42.5055 35.06 42.413 35.1393 42.413 35.1658C42.413 35.1922 42.3865 35.2187 42.3336 35.2451C42.1485 35.4567 42.0294 35.5757 41.9765 35.6022C41.9236 35.6022 41.8707 35.6287 41.8178 35.6816C41.6856 35.7874 41.5269 35.8667 41.3417 35.9196C41.183 35.999 41.0508 36.0651 40.945 36.118C40.8656 36.1709 40.773 36.2238 40.6672 36.2767C40.5614 36.3296 40.4689 36.3957 40.3895 36.4751C40.2043 36.6073 40.1118 36.6867 40.1118 36.7131C40.0853 36.7396 40.0456 36.766 39.9927 36.7925C39.8076 36.9512 39.6886 37.0173 39.6357 36.9909C39.5828 36.9644 39.5299 36.9776 39.477 37.0305C39.3183 37.1099 39.2125 37.176 39.1596 37.2289C39.1067 37.2554 39.0538 37.2686 39.0008 37.2686C38.7099 37.3215 38.4322 37.3215 38.1677 37.2686C37.9032 37.2157 37.6651 37.1496 37.4535 37.0702C37.3477 37.0173 37.2551 36.9776 37.1758 36.9512C37.07 36.8983 36.9642 36.8454 36.8584 36.7925C36.6732 36.7131 36.488 36.6205 36.3029 36.5147C36.0913 36.4089 35.8797 36.3296 35.6681 36.2767C35.5623 36.1709 35.4697 36.0651 35.3904 35.9593C35.2845 35.8535 35.1655 35.7477 35.0333 35.6419C34.9275 35.5361 34.8084 35.4435 34.6762 35.3641C34.5439 35.2583 34.4249 35.1393 34.3191 35.0071C34.2662 34.9277 34.2133 34.8351 34.1604 34.7293C34.1075 34.5971 34.0414 34.4913 33.962 34.4119C33.8827 34.3326 33.8165 34.2532 33.7636 34.1739C33.7107 34.0945 33.6446 34.0019 33.5653 33.8961C33.433 33.711 33.3404 33.5787 33.2875 33.4994C33.2346 33.3936 33.1817 33.2349 33.1288 33.0233C33.0495 32.6265 32.9834 32.3752 32.9305 32.2694C32.8511 32.1372 32.8114 32.0314 32.8114 31.952C32.785 31.8991 32.785 31.833 32.8114 31.7536C32.8114 31.6478 32.8114 31.5553 32.8114 31.4759C32.785 31.3172 32.7717 31.1321 32.7717 30.9205C32.7717 30.7089 32.7982 30.5369 32.8511 30.4047C33.0892 30.0608 33.2611 29.8624 33.3669 29.8095C33.6578 29.5715 33.8562 29.4128 33.962 29.3334C34.0414 29.2541 34.134 29.1879 34.2398 29.135C34.4249 28.9763 34.5704 28.8838 34.6762 28.8573C34.7555 28.8309 34.8217 28.7912 34.8746 28.7383C35.0862 28.5531 35.2581 28.4606 35.3904 28.4606C35.4962 28.4341 35.602 28.3944 35.7078 28.3415C35.8136 28.3151 35.9061 28.2886 35.9855 28.2622C36.0648 28.2357 36.1442 28.2225 36.2235 28.2225C36.7261 28.1696 37.1625 28.1696 37.5328 28.2225C37.7974 28.3019 37.9693 28.3415 38.0486 28.3415C38.1015 28.3415 38.1544 28.3415 38.2073 28.3415C38.4983 28.5267 38.6834 28.6457 38.7628 28.6986C38.8157 28.7251 38.9083 28.8044 39.0405 28.9367C39.1199 29.016 39.1992 29.0954 39.2786 29.1747C39.3315 29.2541 39.4108 29.3466 39.5166 29.4525C39.5431 29.4789 39.596 29.5318 39.6753 29.6112C39.7547 29.6905 39.8076 29.7699 39.834 29.8492C39.8869 29.955 39.9134 30.1666 39.9134 30.484C39.8869 30.8014 39.8605 30.9998 39.834 31.0792C39.7018 31.3437 39.6357 31.4891 39.6357 31.5156C39.6357 31.542 39.6224 31.5817 39.596 31.6346C39.4108 31.8462 39.3315 31.952 39.3579 31.952C39.3579 31.952 39.3447 31.9653 39.3183 31.9917C39.1067 32.2298 38.9479 32.3488 38.8421 32.3488C38.7099 32.3488 38.5909 32.362 38.4851 32.3885C38.3528 32.3885 38.2602 32.3885 38.2073 32.3885C38.128 32.362 38.0222 32.3223 37.8899 32.2694C37.8106 32.2165 37.7048 32.1504 37.5725 32.0711C37.4403 31.9917 37.3477 31.8859 37.2948 31.7536C37.1361 31.4098 37.0964 31.1717 37.1758 31.0395C37.2551 30.8808 37.2948 30.6824 37.2948 30.4443C37.4799 30.4972 37.6122 30.5766 37.6915 30.6824C37.7709 30.7618 37.8503 30.8676 37.9296 30.9998C38.0354 31.1321 38.1148 31.2775 38.1677 31.4362C38.2206 31.5685 38.3528 31.6082 38.5644 31.5553C38.8289 31.0792 38.9479 30.7618 38.9215 30.603C38.8686 30.4443 38.7892 30.2327 38.6834 29.9682C38.6305 29.836 38.5909 29.717 38.5644 29.6112C38.5115 29.4789 38.4586 29.3599 38.4057 29.2541C37.9561 29.1218 37.5725 29.0821 37.2551 29.135C36.9377 29.1879 36.5939 29.2673 36.2235 29.3731C35.8532 29.4789 35.6284 29.5715 35.5491 29.6508C35.4697 29.7037 35.3639 29.7302 35.2316 29.7302C35.1258 29.8095 35.0597 29.9153 35.0333 30.0476C34.9804 30.1534 34.9275 30.2592 34.8746 30.365C34.7688 30.4443 34.6894 30.5501 34.6365 30.6824C34.5572 30.7882 34.5175 30.9072 34.5175 31.0395C34.5175 31.1717 34.5836 31.3304 34.7159 31.5156L34.9142 31.9124C35.02 32.124 35.0862 32.243 35.1126 32.2694C35.1391 32.2694 35.1655 32.2959 35.192 32.3488C35.4036 32.6926 35.5755 32.9175 35.7078 33.0233C35.84 33.1026 35.959 33.1952 36.0648 33.301C36.1442 33.4068 36.25 33.5126 36.3822 33.6184C36.5145 33.6978 36.6335 33.7903 36.7393 33.8961C36.8451 34.0813 36.9377 34.2003 37.0171 34.2532C37.0964 34.3061 37.189 34.359 37.2948 34.4119C37.3477 34.4384 37.427 34.4781 37.5328 34.531C37.6386 34.5839 37.7444 34.6235 37.8503 34.65C37.9032 34.65 37.9825 34.65 38.0883 34.65C38.1941 34.6235 38.2999 34.6235 38.4057 34.65C38.6173 34.65 38.7892 34.65 38.9215 34.65C39.0273 34.65 39.1992 34.6103 39.4373 34.531C39.6753 34.4516 39.8473 34.4119 39.9531 34.4119C40.0853 34.2532 40.1911 34.1739 40.2705 34.1739C40.3234 34.1739 40.3763 34.1474 40.4292 34.0945C40.6143 33.9887 40.7598 33.8829 40.8656 33.7771C40.945 33.6713 41.0375 33.5523 41.1433 33.42C41.3814 33.182 41.6062 32.9968 41.8178 32.8646C42.003 32.7059 42.1617 32.5339 42.2939 32.3488C42.4526 32.1107 42.5717 31.8859 42.651 31.6743C42.7304 31.4362 42.7436 31.1321 42.6907 30.7618C42.6378 30.5501 42.6113 30.2989 42.6113 30.0079C42.6113 29.717 42.5849 29.4657 42.532 29.2541C42.5055 29.1218 42.4659 28.9896 42.413 28.8573C42.3601 28.6986 42.3072 28.5267 42.2543 28.3415C42.2014 28.2357 42.1749 28.1299 42.1749 28.0241C42.1749 27.8919 42.1485 27.7464 42.0956 27.5877C42.0427 27.4025 41.9898 27.2174 41.9369 27.0322C41.884 26.8206 41.8575 26.5958 41.8575 26.3577C41.7517 26.199 41.6724 26.0271 41.6195 25.842C41.5666 25.6568 41.4872 25.4849 41.3814 25.3262C41.3285 25.2468 41.2888 25.1675 41.2624 25.0881C41.2359 24.9823 41.1962 24.8897 41.1433 24.8104L40.9053 24.3343C40.6143 23.8582 40.1647 23.4746 39.5563 23.1837C39.4241 23.1308 39.305 23.0779 39.1992 23.025C39.0934 22.9721 38.9744 22.9192 38.8421 22.8663C38.5512 22.7076 38.3264 22.6018 38.1677 22.5489C38.0619 22.496 37.9561 22.4298 37.8503 22.3505C37.718 22.2711 37.5857 22.2182 37.4535 22.1918C37.3212 22.1918 37.2022 22.2182 37.0964 22.2711C36.9642 22.2976 36.8187 22.3108 36.66 22.3108C36.5542 22.3108 36.4484 22.3108 36.3426 22.3108C36.2103 22.2844 36.0781 22.2711 35.9458 22.2711H35.2316C34.9142 22.2711 34.6497 22.2447 34.4381 22.1918C34.2001 22.1389 33.9356 22.1257 33.6446 22.1521C33.433 22.1786 33.2214 22.2315 33.0098 22.3108C32.7982 22.3637 32.5866 22.4298 32.375 22.5092C32.2163 22.615 32.1369 22.6943 32.1369 22.7472C32.1105 22.7737 32.0708 22.7869 32.0179 22.7869C31.727 22.9721 31.5815 23.0911 31.5815 23.144C31.5815 23.1704 31.5682 23.1969 31.5418 23.2234C31.3831 23.4879 31.2376 23.6333 31.1054 23.6598C31.0525 23.9507 31.0128 24.1094 30.9863 24.1359C30.9599 24.1623 30.9467 24.202 30.9467 24.2549C30.8144 24.5723 30.7218 24.8104 30.6689 24.9691C30.616 25.1013 30.5631 25.2468 30.5102 25.4055C30.4309 25.7758 30.3912 26.0007 30.3912 26.08C30.3648 26.1594 30.3251 26.2652 30.2722 26.3974C30.1664 26.5297 30.1135 26.6487 30.1135 26.7545C30.1135 26.8603 30.1002 26.9397 30.0738 26.9926C29.9944 27.2571 29.9415 27.4158 29.9151 27.4687C29.8886 27.4951 29.8754 27.5348 29.8754 27.5877C29.7961 27.9051 29.7564 28.0638 29.7564 28.0638C29.6506 28.3019 29.5977 28.5135 29.5977 28.6986C29.5712 28.8573 29.5316 29.0292 29.4787 29.2144C29.3993 29.4789 29.3596 29.6905 29.3596 29.8492C29.2538 30.1137 29.1877 30.3121 29.1613 30.4443C29.1084 30.5766 29.0951 30.6956 29.1216 30.8014C29.1216 30.9072 29.0951 31.013 29.0422 31.1188C28.8835 31.4362 28.7777 31.7007 28.7248 31.9124C28.6719 32.0182 28.6058 32.124 28.5264 32.2298C28.4471 32.3091 28.381 32.4017 28.3281 32.5075C28.2223 32.8249 28.1694 32.9836 28.1694 32.9836C28.1429 32.9836 28.1165 33.01 28.09 33.0629C28.0371 33.1423 27.9842 33.2217 27.9313 33.301C27.8784 33.3539 27.8255 33.4465 27.7726 33.5787C27.6932 33.6845 27.6139 33.7903 27.5345 33.8961C27.4287 34.0019 27.3097 34.0813 27.1775 34.1342L26.8601 34.4913C26.6485 34.7822 26.5162 34.9542 26.4633 35.0071C26.3839 35.0335 26.3178 35.1129 26.2649 35.2451C26.0533 35.3245 25.8682 35.417 25.7095 35.5228C25.5508 35.6022 25.3921 35.6683 25.2333 35.7212C25.1011 35.8006 24.9688 35.8667 24.8366 35.9196C24.7837 35.9725 24.7043 36.0122 24.5985 36.0386C24.4663 36.0386 24.3605 36.0651 24.2811 36.118C24.2018 36.1709 24.1092 36.2106 24.0034 36.237C23.8711 36.2635 23.7521 36.3031 23.6463 36.356C23.3818 36.4354 23.2496 36.4883 23.2496 36.5147C23.2496 36.5147 23.2363 36.5147 23.2099 36.5147C22.866 36.647 22.628 36.7528 22.4957 36.8321C22.3635 36.8851 22.2312 36.938 22.099 36.9909C21.9932 37.0173 21.8874 37.0305 21.7816 37.0305C21.6758 37.0305 21.5699 37.0305 21.4641 37.0305C21.279 37.057 21.1335 37.0834 21.0277 37.1099C20.8955 37.1099 20.7368 37.0834 20.5516 37.0305C20.3929 36.9776 20.2342 36.9247 20.0755 36.8718C19.8903 36.8189 19.7052 36.766 19.52 36.7131C19.0439 36.5809 18.7265 36.4751 18.5678 36.3957C18.4356 36.3428 18.3165 36.2899 18.2107 36.237C18.0785 36.1841 17.9462 36.1312 17.814 36.0783C17.6024 35.9461 17.4701 35.8799 17.4172 35.8799C17.2056 35.827 17.0205 35.7609 16.8618 35.6816C16.5708 35.5228 16.2666 35.298 15.9492 35.0071C15.7905 34.8484 15.6979 34.7558 15.6715 34.7293C15.6186 34.6764 15.5657 34.6235 15.5128 34.5706C15.3012 34.4119 15.1821 34.3061 15.1557 34.2532C15.1028 34.1739 15.0367 34.1077 14.9573 34.0548C14.7457 33.8432 14.6267 33.7242 14.6002 33.6978C14.5738 33.6713 14.5341 33.6184 14.4812 33.5391C14.3754 33.4068 14.2564 33.2878 14.1241 33.182C13.9919 33.0497 13.8993 32.9307 13.8464 32.8249C13.767 32.5339 13.6877 32.3223 13.6083 32.1901C13.529 32.0314 13.4629 31.8594 13.41 31.6743C13.3306 31.4098 13.3042 31.1982 13.3306 31.0395C13.3306 30.8808 13.3174 30.7221 13.2909 30.5634C13.2645 30.4576 13.238 30.365 13.2116 30.2856C13.1587 30.1798 13.1322 30.0608 13.1322 29.9286C13.1058 29.7963 13.1058 29.6773 13.1322 29.5715C13.1322 29.4392 13.1322 29.307 13.1322 29.1747C13.1322 29.0425 13.119 28.9367 13.0926 28.8573C13.0661 28.7515 13.0661 28.6457 13.0926 28.5399C13.0926 28.3812 13.119 28.1961 13.1719 27.9844C13.1984 27.8786 13.2116 27.7728 13.2116 27.667C13.1851 27.5612 13.1851 27.4687 13.2116 27.3893C13.3438 27.019 13.4232 26.7677 13.4496 26.6355C13.5025 26.5032 13.5687 26.3577 13.648 26.199C13.7009 26.0139 13.7538 25.8552 13.8067 25.7229C13.939 25.432 14.0183 25.2204 14.0448 25.0881C14.0712 24.9559 14.0977 24.8633 14.1241 24.8104C14.2035 24.6252 14.2961 24.4533 14.4019 24.2946C14.4812 24.1359 14.5738 23.964 14.6796 23.7788C14.7325 23.6466 14.7854 23.554 14.8383 23.5011C14.8647 23.4482 14.9044 23.3688 14.9573 23.263C15.0367 23.1043 15.1028 22.9853 15.1557 22.9059C15.1821 22.8266 15.2218 22.734 15.2747 22.6282C15.3805 22.5489 15.4467 22.3637 15.4731 22.0728C15.5525 21.676 15.5921 21.3189 15.5921 21.0015C15.5657 20.6576 15.526 20.4064 15.4731 20.2477C15.3937 20.0096 15.2747 19.8245 15.116 19.6922C14.9573 19.56 14.8251 19.4145 14.7193 19.2558C14.5077 19.1764 14.3357 19.0706 14.2035 18.9384C14.0712 18.7797 13.939 18.6342 13.8067 18.5019C13.7274 18.449 13.6612 18.3961 13.6083 18.3432C13.529 18.2903 13.4496 18.2242 13.3703 18.1448C13.1851 17.9597 13.0661 17.8539 13.0132 17.8274C12.9338 17.801 12.8809 17.7481 12.8545 17.6687V17.5894Z" fill="white"/>
<defs>
<linearGradient id="paint0_linear_438_290" x1="27.9" y1="0" x2="27.9" y2="55" gradientUnits="userSpaceOnUse">
<stop stop-color="#FF8308"/>
<stop offset="0.932292" stop-color="#FF147C"/>
</linearGradient>
</defs>
</svg>
